<svg xmlns="http://www.w3.org/2000/svg" width="600" height="585.849" viewBox="0 0 600 585.849"><path d="M339.93 157.31c-38.942 10.46-96.936 38.5-94.578 85.543 1.424 28.187 39.235 51.267 69.288 65.213 8.74-4.321 17.53-9.969 25.338-15.567-24.65-10.803-56.275-33.048-49.45-58.24 9.478-35.159 63.2-59.368 73.66-53.18 10.46 6.137 45.62 27.057 33.736 41.297-11.884 14.29-29.955 23.325-48.026 18.071 0 0 21.41-29.463 4.517-28.481-16.843.933-44.391 19.937-31.575 30.396 10.018 8.152 31.428 17.58 48.665 17.138 3.24-9.379 9.82-19.691 44.391-15.173 12.031-6.286 21.214-16.009 17.678-34.964-6.678-35.454-54.655-62.512-93.644-52.052zm205.95-22.195l-18.072-7.906 10.46-12.375-48.173-15.812-58.289 17.727-12.669-8.888-3.143 9.821-54.507-14.24-4.91 7.906-18.563-6.63-45.62 9.822-33.244-12.67-6.973 8.84h-61.775l-12.964 16.499 11.687-.638-26.124 69.042 10.705-8.691-6.973 40.856 26.222-42.919s-17.138 65.262-15.517 68.405c1.571 3.192 0 42.968 0 42.968 10.018-5.55 19.495-8.152 28.58-8.692-8.594-10.018-15.567-27.352-5.304-55.146 19.004-51.316 63.641-118.836 139.216-112.649 75.573 6.187 127.429 51.315 120.702 94.087-1.965 12.67-9.822 25.338-20.38 36.927 6.728 2.554 13.505 5.647 20.183 9.134 15.223-17.727 37.173-51.905 23.473-90.257 0 0 43.95 29.022 18.022 116.087v.049c19.593 14.093 33.539 26.517 34.472 27.352l-17.776-41.298 13.798-20.183-14.29-85.1 26.763 57.257L531 144.003l14.88 21.852v-30.74z" fill="#00f"/><path d="M528.447 401.22c3.781 5.745-5.402 11.736 0 19.347 5.402 7.612-.344 28.825-2.848 38.009-2.554 9.182-26.96 15.86-32.95 10.754-6.04-5.058-40.218-18.66-40.218-18.66s-22.932 23.717-23.816 16.745c-.933-6.925-.933-16.451-12.326-11.688s-52.592 17.433-52.592 17.433l-21.214-26.615-12.375 19.642-48.467 14.24s-16.156-23.128-17.09-23.423c-.981-.344-66.881 4.42-66.881 4.42l-13.308-25.34s.638-23.128-4.076-27.253c-4.763-4.125 4.42-15.174 0-14.879-4.469.295 5.991-22.196-.638-24.405-6.678-2.21-20.625-7.907-20.625-7.907l12.375-44.048s19.004-19.446 40.07-24.602c6.777-1.67 13.8-1.866 20.429.54 27.253 9.92 51.02 44.687 88.095 24.062a110.553 110.553 0 0 0 6.875-4.125c8.103-5.156 15.714-11.097 22.638-17.285 16.843-14.928 29.513-31.084 35.16-39.53 3.535-1.719 7.857-3.241 12.522-4.862h.049c7.71 1.523 19.446 4.715 32.95 9.036a606.463 606.463 0 0 1 22.294 7.611c16.549 6.09 33.785 13.26 48.37 20.87 16.499 8.594 29.61 17.678 34.57 26.223 18.07 31.231 20.035 47.535 20.035 47.535l-33.687 2.357s6.973 15.517 9.232 17.432c2.21 1.915-6.383 12.67-2.553 18.366z" fill="teal"/><path d="M364.188 181.078c-10.46-6.187-64.182 18.022-73.66 53.182-6.825 25.191 24.8 47.436 49.45 58.24 13.21-9.576 23.67-19.103 26.812-22.098 2.456-2.406 3.241-6.58 4.715-10.902-17.237.442-38.647-8.986-48.665-17.138-12.816-10.46 14.732-29.463 31.575-30.396 16.893-.982-4.517 28.481-4.517 28.481 18.07 5.254 36.142-3.78 48.026-18.07 11.883-14.241-23.277-35.16-33.736-41.299zm-24.258-61.333c-75.575-6.187-120.212 61.333-139.216 112.649-10.263 27.794-3.29 45.128 5.304 55.146 27.4-1.62 50.726 15.37 71.203 25.633 10.018 5.009 23.718 1.571 37.419-5.107-30.053-13.946-67.864-37.026-69.288-65.213-2.358-47.043 55.636-75.083 94.578-85.542 38.99-10.46 86.966 16.598 93.644 52.052 3.536 18.955-5.647 28.678-17.678 34.964.196.048.442.048.688.098 7.611 1.03 15.615 3.29 23.669 6.334 10.557-11.589 18.414-24.258 20.379-36.927 6.727-42.772-45.129-87.9-120.702-94.087zm143.978 49.891c13.7 38.352-8.25 72.53-23.473 90.257 14.88 7.66 29.267 17.089 41.495 25.83 25.927-87.065-18.022-116.087-18.022-116.087z" fill="#ff0"/><path d="M521.947 503.252l26.612-15.207 6.178-42.295-7.128-11.405 6.652-10.93-5.702-9.98 7.128-8.553-8.078-23.286 34.215-7.128-40.393-98.845 16.632-21.86-16.157-82.688 28.988 54.174v-99.32l-10.93-7.603-.475-8.08 4.277-3.8-13.781-6.178-1.426-5.703 5.702-4.752-53.224-14.732-63.679 16.633L419.3 77.457v12.356L354.67 75.08l-5.227 17.108-24.236-14.257-36.592 12.356-43.72-15.207-14.256 8.554-62.254-2.852-20.434 19.485 20.118 2.217 7.445-5.227 64.47 3.96 9.188-10.455 42.77 15.207 36.591-11.88 21.623 9.266 9.029-11.167 68.827 12.672.792-12.355 13.623 12.83 66.332-18.969 46.453 22.335-3.643 6.614 11.088 9.504 1.584 82.847-30.414-61.541 13.306 93.38-14.494 20.672 40.394 100.033-37.186 6.06 8.91 22.928-6.653 12.237 5.703 11.683-6.336 10.454 8.712 18.217-5.386 28.513-26.81 14.772-57.264-20.554-26.018 14.376v-12.079l-68.59 20.276-30.097-32.632-3.801 23.445-54.492 21.86-23.444-28.513-63.362-1.584-16.791-26.296-3.485-21.543v-9.188l-2.535-9.504 4.436-17.424-11.406-1.268.634-10.771-12.99-8.871 19.801-76.827-7.128-27.562 22.336-78.411-19.96 16.157 10.455-29.463-18.533 19.959 4.277-32.79 21.86-40.869H159.83l-15.207 29.939-9.029 78.41 12.831-20.434-4.277 31.84 10.93-15.207-11.88 29.463 11.405 22.336-23.286 97.42h10.93v11.88l10.93 6.178-5.227 10.454 9.98.475-2.377 13.782 6.178 13.306-7.128 22.335 19.009 27.562 34.215 1.902 43.245 9.504 29.463 29.463 60.353-25.661v-17.583l25.901 33.265 64.39-23.761 6.653 4.752 6.178 14.732 21.86-21.385 56.076 23.286zm-261.74-230.829l-67.269-30.858-25.345 15.087 9.188 13.743 20.91-16.649 58.926 22.986 3.59-4.309zm-61.883-6.146l-13.94 12.672 15.366 13.55s1.9-2.382 6.89-7.131c1.353-1.288 5.351-.436 10.405 1.435-.56 4.207-2.18 9.806-6.84 10.68-7.604 1.425-4.753 10.692-1.901 13.78 2.85 3.09 13.306 9.03 17.107 0 2.7-6.412 2.858-14.452 1.801-20.092 12.08 5.754 24.862 13.288 24.862 13.288 4.644-15.675-53.75-38.182-53.75-38.182zm325.999-14.487l-26.612-10.225c-50.373 7.92-65.897 27.246-65.897 27.246 7.603-3.168 62.729-17.97 62.729-17.97l20.91 11 8.87-10.05zm-17.742 23.357l6.653-7.603c-28.76-15.802-71.282 12.99-71.282 12.99 7.609-2.951 14.382-5.015 20.515-6.514-2.403 4.349 1.696 9.347 5.305 13.958 4.277 5.465 14.019 2.376 18.533 0 4.515-2.376 2.139-9.742-5.374-8.15-5.157 1.094-6.3-4.502-6.509-8.121 22.696-3.094 32.16 3.44 32.16 3.44zM41.243 1.07l-31.02 60.378h11.352l8.869-18.285H64.22l9.42 18.285H85.82L52.76 1.07H41.243zM33.53 36.654l8.871-17.71c1.873-3.817 3.324-7.66 4.352-11.533 1.25 3.269 3.16 7.443 5.73 12.521l8.431 16.722H33.53zm70.803-26.605l23.361 51.398h9.644l23.471-50.535v50.535h10.303V1.07h-14.381l-19.338 42.009c-1.95 4.256-3.38 7.483-4.3 9.68-.807-1.979-2.092-4.957-3.855-8.94L110.118 1.07H94.03v60.378h10.303V10.05zm127.414 50.389c3.544-.672 6.493-1.667 8.843-2.986 2.35-1.318 4.325-3.191 5.922-5.622 1.6-2.43 2.398-5.06 2.398-7.886 0-3.516-1.314-6.563-3.94-9.143-2.628-2.58-6.382-4.407-11.267-5.479 3.782-1.4 6.61-3.24 8.484-5.517 1.875-2.28 2.81-4.71 2.81-7.292 0-2.772-1.055-5.428-3.168-7.967-2.112-2.54-5.033-4.422-8.761-5.645-3.729-1.22-8.678-1.832-14.85-1.832h-30.302v60.378h30.799c5.143 0 9.485-.336 13.032-1.01zM198.605 8.196h16.144c5.803 0 9.898.28 12.286.844 2.388.563 4.225 1.606 5.51 3.129 1.285 1.525 1.928 3.29 1.928 5.291 0 2.115-.688 3.873-2.064 5.273-1.38 1.4-3.427 2.403-6.146 3.007-2.057.467-5.452.7-10.193.7h-17.465V8.196zm0 25.368h18.679c5.14 0 9.08.338 11.818 1.01 2.736.673 4.877 1.84 6.419 3.5 1.542 1.661 2.314 3.618 2.314 5.87 0 1.923-.533 3.618-1.597 5.085a10.328 10.328 0 0 1-4.079 3.357c-1.652.77-3.71 1.319-6.17 1.647-1.397.192-3.821.288-7.274.288h-20.11V33.564zm75.872 1.071h12.396c2.755 0 4.738.096 5.952.288 1.652.302 3.277.84 4.874 1.607 1.6.77 3.407 2.114 5.429 4.035 2.019 1.923 4.591 4.697 7.713 8.32l10.69 12.562h13.444l-14.051-16.432c-2.791-3.213-5.75-5.891-8.87-8.032-1.47-.988-3.62-1.99-6.447-3.007 7.75-.796 13.48-2.661 17.19-5.601 3.711-2.937 5.565-6.548 5.565-10.83 0-3.324-1.12-6.357-3.36-9.103-2.242-2.745-5.234-4.66-8.982-5.745-3.747-1.086-9.219-1.628-16.42-1.628h-35.812v60.378h10.689V34.635zm0-26.893h25.565c5.987 0 10.368.921 13.142 2.76 2.772 1.84 4.16 4.187 4.16 7.042 0 1.95-.717 3.755-2.15 5.414-1.432 1.662-3.526 2.87-6.28 3.626-2.756.755-6.578 1.132-11.462 1.132h-22.975V7.742zm85.621 50.617c5.987 2.745 12.783 4.117 20.388 4.117 7.016 0 13.552-1.242 19.614-3.726 6.061-2.484 10.746-6.143 14.05-10.977 3.305-4.832 4.96-10.308 4.96-16.432 0-6.04-1.574-11.442-4.71-16.206-3.141-4.765-7.706-8.479-13.696-11.14C394.719 1.33 387.996 0 380.539 0c-11.387 0-20.68 2.834-27.879 8.502-7.2 5.671-10.8 13.517-10.8 23.54 0 5.298 1.543 10.324 4.629 15.074s7.622 8.497 13.61 11.243zm.964-45.653c5.455-3.887 11.962-5.83 19.534-5.83 5.323 0 10.129 1.01 14.406 3.027 4.278 2.019 7.53 4.86 9.754 8.526 2.22 3.666 3.333 7.956 3.333 12.871 0 7.769-2.6 13.77-7.797 17.998-5.199 4.227-11.817 6.342-19.863 6.342-7.894 0-14.464-2.094-19.698-6.28s-7.85-9.92-7.85-17.197c0-9.087 2.726-15.573 8.181-19.457zm84.331-11.637h-10.689v60.378h10.69V1.07zm59.949 52.883c-3.127.906-6.724 1.36-10.8 1.36-4.594 0-8.728-.598-12.4-1.792-3.674-1.196-6.384-2.76-8.124-4.697-1.746-1.935-2.859-4.412-3.333-7.433l-10.085.66c.148 4.035 1.625 7.653 4.436 10.852s6.685 5.593 11.624 7.186c4.94 1.592 11.068 2.388 18.376 2.388 5.77 0 10.958-.79 15.566-2.367 4.609-1.58 8.143-3.788 10.608-6.632 2.46-2.841 3.688-5.867 3.688-9.08 0-3.24-1.118-6.103-3.357-8.587-2.244-2.486-5.716-4.539-10.416-6.157-3.232-1.098-9.193-2.383-17.878-3.85-8.689-1.47-14.06-2.905-16.117-4.305-2.096-1.4-3.141-3.186-3.141-5.354 0-2.498 1.477-4.635 4.436-6.404 2.954-1.772 7.668-2.657 14.132-2.657 6.205 0 10.9.976 14.08 2.923 3.174 1.952 5.04 4.834 5.591 8.65l10.248-.577c-.187-3.541-1.506-6.714-3.966-9.514-2.465-2.8-5.98-4.92-10.555-6.364-4.57-1.44-9.85-2.16-15.84-2.16-5.437 0-10.377.686-14.822 2.06-4.44 1.37-7.822 3.383-10.138 6.032-2.311 2.65-3.472 5.498-3.472 8.546 0 2.774.95 5.28 2.84 7.517 1.893 2.237 4.766 4.112 8.622 5.62 2.977 1.182 8.176 2.439 15.594 3.77 7.42 1.332 12.215 2.313 14.382 2.944 3.376.961 5.803 2.148 7.27 3.563 1.472 1.414 2.206 3.069 2.206 4.963 0 1.868-.762 3.59-2.287 5.167-1.525 1.58-3.846 2.822-6.968 3.729zm45.068.369V33.77h44.684v-7.083H550.41V8.196h47.715V1.069H539.72v60.378H600v-7.126h-49.59zM64.44 552.693c3.782-1.4 6.611-3.237 8.484-5.515 1.875-2.283 2.81-4.71 2.81-7.294 0-2.772-1.055-5.428-3.168-7.965-2.112-2.542-5.032-4.422-8.76-5.645-3.73-1.222-8.678-1.831-14.85-1.831H18.654v60.375h30.8c5.142 0 9.485-.336 13.03-1.007 3.545-.672 6.494-1.669 8.844-2.988s4.325-3.189 5.922-5.62c1.6-2.431 2.398-5.06 2.398-7.889 0-3.515-1.314-6.56-3.94-9.14-2.627-2.58-6.382-4.407-11.267-5.481zm-35.098-21.124h16.144c5.803 0 9.898.278 12.286.844 2.389.56 4.225 1.606 5.51 3.126 1.286 1.525 1.928 3.29 1.928 5.295 0 2.114-.688 3.87-2.064 5.27-1.379 1.4-3.427 2.402-6.146 3.007-2.057.47-5.452.7-10.193.7H29.343v-18.242zm37.633 40.833a10.349 10.349 0 0 1-4.079 3.357c-1.652.767-3.709 1.319-6.17 1.645-1.397.192-3.821.288-7.274.288h-20.11v-20.755h18.679c5.14 0 9.08.336 11.818 1.007 2.736.676 4.877 1.841 6.419 3.5 1.542 1.665 2.314 3.621 2.314 5.87 0 1.923-.532 3.62-1.597 5.088zm75.817-12.046c-1.47-.988-3.62-1.99-6.448-3.007 7.75-.796 13.48-2.661 17.19-5.6 3.711-2.94 5.565-6.552 5.565-10.834 0-3.323-1.12-6.354-3.36-9.102-2.241-2.743-5.234-4.661-8.981-5.745-3.748-1.084-9.22-1.625-16.42-1.625H94.526v60.375h10.69v-26.812h12.396c2.755 0 4.738.096 5.95.288 1.653.302 3.278.84 4.875 1.606 1.6.772 3.408 2.115 5.429 4.038 2.019 1.923 4.592 4.695 7.713 8.32l10.69 12.56h13.444l-14.051-16.43c-2.791-3.213-5.75-5.893-8.87-8.032zm-14.603-9.27h-22.975v-19.973h25.565c5.987 0 10.368.92 13.142 2.762 2.772 1.837 4.16 4.187 4.16 7.04 0 1.952-.717 3.755-2.15 5.414-1.432 1.664-3.525 2.873-6.28 3.626-2.755.757-6.577 1.131-11.462 1.131zm100.665 8.2c0 7.577-1.671 12.7-5.014 15.36-3.344 2.662-8.946 3.995-16.805 3.995-4.592 0-8.476-.671-11.654-2.019-3.177-1.342-5.418-3.26-6.723-5.745-1.304-2.484-1.954-6.349-1.954-11.59v-34.844h-10.69v34.882c0 6.397 1.027 11.442 3.087 15.135 2.055 3.692 5.49 6.517 10.303 8.464 4.81 1.951 11 2.925 18.568 2.925 7.786 0 14.077-1.117 18.87-3.357 4.793-2.24 8.11-5.14 9.946-8.709 1.837-3.572 2.755-8.387 2.755-14.458v-34.882h-10.689v34.844zm66.283 1.852h23.748v11.245c-2.278 1.51-5.62 2.93-10.03 4.258a46.554 46.554 0 0 1-13.555 2c-5.325 0-10.358-.877-15.096-2.637-4.738-1.755-8.346-4.446-10.826-8.071-2.479-3.626-3.719-8.128-3.719-13.509 0-4.364 1.027-8.416 3.084-12.147 1.213-2.172 2.91-4.162 5.098-5.975 2.184-1.813 5.059-3.276 8.622-4.383 3.563-1.113 7.788-1.67 12.674-1.67 4.077 0 7.786.528 11.128 1.583 3.343 1.06 5.916 2.465 7.714 4.225 1.8 1.755 3.306 4.172 4.52 7.246l9.641-1.976c-1.396-4.061-3.436-7.356-6.117-9.883-2.68-2.527-6.382-4.498-11.101-5.913-4.721-1.41-10.001-2.12-15.84-2.12-8.044 0-15.154 1.238-21.323 3.707-6.172 2.47-10.902 6.254-14.19 11.347-3.287 5.092-4.93 10.578-4.93 16.453 0 5.932 1.652 11.298 4.959 16.103 3.306 4.805 8.2 8.479 14.684 11.02 6.483 2.537 13.69 3.808 21.625 3.808a62.93 62.93 0 0 0 17.192-2.37c5.582-1.577 11-3.931 16.254-7.063v-22.404l-34.216.043v7.083zm51.792 23.68h10.689v-60.375h-10.69v60.375zm40.443-27.675h44.684v-7.083h-44.684V531.57h47.715v-7.126h-58.405v60.375h60.28v-7.126h-49.59v-20.549zm112.79 3.213c-1.473-.988-3.621-1.99-6.45-3.007 7.754-.796 13.48-2.661 17.192-5.6 3.711-2.94 5.567-6.552 5.567-10.834 0-3.323-1.122-6.354-3.362-9.102-2.24-2.743-5.236-4.661-8.982-5.745-3.745-1.084-9.221-1.625-16.42-1.625h-35.812v60.375h10.69v-26.812h12.395c2.753 0 4.738.096 5.952.288 1.654.302 3.28.84 4.877 1.606 1.597.772 3.404 2.115 5.423 4.038 2.024 1.923 4.594 4.695 7.716 8.32l10.69 12.56h13.441l-14.046-16.43c-2.796-3.213-5.75-5.893-8.871-8.032zm-14.603-9.27h-22.975v-19.973h25.565c5.985 0 10.368.92 13.14 2.762 2.776 1.837 4.162 4.187 4.162 7.04 0 1.952-.72 3.755-2.148 5.414-1.434 1.664-3.53 2.873-6.282 3.626-2.758.757-6.575 1.131-11.462 1.131zm58.568 6.057h44.684v-7.083h-44.684V531.57h47.715v-7.126h-58.404v60.375h60.279v-7.126h-49.59v-20.549z"/><path d="M84.319 474.713H23.987v11.984h68.405v-56.582h-8.073v44.598zM23.987 351.608v13.96l20.112 17.542c4.479 3.874 8.507 7.164 12.085 9.883a208.764 208.764 0 0 0-11.572 9.203l-20.625 17.853v14.579l39.428-34.902h28.977v-11.984H63.415l-39.428-36.134zm15.048-12.694c5.304 3.607 11.519 5.405 18.642 5.405 6.532 0 12.644-1.592 18.336-4.786 5.695-3.189 10.042-7.845 13.044-13.96s4.503-14.05 4.503-23.814c0-9.428-1.952-17.405-5.858-23.932-3.903-6.527-9.572-11.046-17.007-13.56l-2.288 11.985c5.757 1.647 10.097 4.798 13.02 9.45 2.923 4.653 4.386 10.336 4.386 17.05 0 5.514-1.072 10.64-3.22 15.379-2.147 4.733-5.388 8.224-9.728 10.468-4.34 2.245-9.419 3.367-15.235 3.367-4.51 0-8.889-.945-13.135-2.84-4.247-1.893-7.63-5.178-10.148-9.854-2.52-4.67-3.78-10.488-3.78-17.45 0-6.053 1.136-11.074 3.406-15.07 2.271-3.995 5.896-7.043 10.872-9.143l-2.1-11.797c-6.314 2.431-11.213 6.733-14.699 12.91-3.481 6.176-5.225 13.796-5.225 22.855 0 7.989 1.377 15.307 4.13 21.958 2.752 6.652 6.783 11.778 12.084 15.38zm53.357-157.23h-8.073v55.592H61.037v-50.093H53.01v50.093H32.06v-53.491h-8.073v65.475h68.405v-67.575zm0-84.376h-8.073V152.9H61.037v-50.094H53.01V152.9H32.06V99.408h-8.073v65.476h68.405V97.308z" fill="#bebebe"/><path fill="#00f" d="M0 205.449h10.138v15.841H0z"/><path fill="teal" d="M416.133 502.935v10.138h-15.841v-10.138z"/></svg>